<svg width="256" height="256" viewBox="0 0 256 256" fill="none" xmlns="http://www.w3.org/2000/svg">
<rect width="256" height="256" fill="#013233"/>
<g clip-path="url(#clip0_970_317)">
<path d="M90.2061 99.1972H42.8806C41.6755 99.1972 40.6896 98.158 40.6896 96.8878V93.3659C40.6896 89.3821 43.757 86.1489 47.5364 86.1489H85.4955C89.275 86.1489 92.3424 89.3821 92.3424 93.3659V96.8878C92.3971 98.158 91.4112 99.1972 90.2061 99.1972Z" fill="white"/>
<path d="M80.2371 82.3384H52.8496C51.6446 82.3384 50.6038 81.2991 50.6038 79.9712C50.6038 74.0821 55.1502 69.2901 60.7372 69.2901H72.3495C77.9365 69.2901 82.4829 74.0821 82.4829 79.9712C82.4829 81.2991 81.4969 82.3384 80.2371 82.3384Z" fill="white"/>
<path d="M92.3971 103.008H40.6896C37.2935 103.008 34.5 105.952 34.5 109.532C34.5 113.112 37.2935 116.056 40.6896 116.056H59.0392C59.6965 112.361 62.7639 109.532 66.4886 109.532C70.2133 109.532 73.3354 112.361 73.9927 116.056H92.3424C95.7384 116.056 98.5319 113.112 98.5319 109.532C98.5319 105.952 95.7932 103.008 92.3971 103.008Z" fill="white"/>
<path d="M90.1514 119.867H74.1023V132.915H86.1528C89.5488 132.915 92.3424 129.97 92.3424 126.391V122.234C92.3971 120.964 91.4112 119.867 90.1514 119.867Z" fill="white"/>
<path d="M42.8806 119.867C41.6755 119.867 40.6348 120.906 40.6348 122.234V126.391C40.6348 129.97 43.4283 132.915 46.8244 132.915H58.8749V119.867C58.9296 119.867 42.8806 119.867 42.8806 119.867Z" fill="white"/>
</g>
<path d="M114.441 99.6176H112.839V102.822H114.441V99.6176ZM145.66 102.822C146.544 102.822 147.262 102.105 147.262 101.22C147.262 100.335 146.544 99.6176 145.66 99.6176V102.822ZM136.581 90.5386V88.9364H133.376V90.5386H136.581ZM144.785 102.519C145.562 102.943 146.535 102.656 146.959 101.88C147.382 101.103 147.096 100.13 146.319 99.7058L144.785 102.519ZM146.152 102.705C146.973 102.374 147.369 101.44 147.038 100.619C146.706 99.7991 145.772 99.4027 144.952 99.7342L146.152 102.705ZM133.376 111.793V113.396L136.581 113.396V111.793H133.376ZM114.441 102.822H145.66V99.6176H114.441V102.822ZM133.376 90.5386C133.376 92.2968 134.32 93.9192 135.389 95.2305C136.489 96.5811 137.917 97.8382 139.286 98.8957C140.664 99.9605 142.034 100.863 143.055 101.497C143.567 101.815 143.994 102.068 144.296 102.242C144.447 102.33 144.567 102.397 144.65 102.444C144.692 102.467 144.724 102.485 144.747 102.498C144.758 102.504 144.767 102.509 144.773 102.513C144.777 102.514 144.779 102.516 144.781 102.517C144.782 102.517 144.783 102.518 144.784 102.518C144.784 102.518 144.784 102.519 144.784 102.519C144.785 102.519 144.785 102.519 145.552 101.112C146.319 99.7058 146.32 99.7059 146.32 99.706L146.32 99.7061C146.32 99.7061 146.32 99.706 146.319 99.7058C146.319 99.7055 146.317 99.7048 146.316 99.7038C146.312 99.7017 146.306 99.6983 146.297 99.6935C146.28 99.6839 146.253 99.669 146.217 99.6489C146.145 99.6087 146.038 99.5478 145.9 99.468C145.623 99.3082 145.225 99.0729 144.745 98.7752C143.784 98.1778 142.51 97.338 141.245 96.3602C139.97 95.375 138.755 94.289 137.873 93.2065C136.959 92.0846 136.581 91.1836 136.581 90.5386H133.376ZM145.552 101.22C144.952 99.7342 144.951 99.7344 144.951 99.7346C144.951 99.7347 144.95 99.7349 144.95 99.735C144.949 99.7354 144.948 99.7358 144.947 99.7362C144.945 99.7372 144.942 99.7384 144.938 99.7398C144.931 99.7427 144.921 99.7467 144.909 99.7517C144.885 99.7617 144.851 99.7759 144.808 99.7942C144.722 99.8307 144.599 99.8838 144.444 99.9527C144.136 100.091 143.7 100.293 143.18 100.555C142.142 101.077 140.749 101.847 139.345 102.832C137.949 103.812 136.487 105.044 135.361 106.505C134.234 107.969 133.376 109.753 133.376 111.793H136.581C136.581 110.683 137.045 109.571 137.9 108.461C138.757 107.349 139.938 106.331 141.186 105.455C142.425 104.585 143.675 103.893 144.62 103.417C145.091 103.18 145.482 102.999 145.751 102.879C145.886 102.818 145.99 102.773 146.059 102.744C146.093 102.73 146.118 102.719 146.134 102.713C146.142 102.709 146.148 102.707 146.151 102.706C146.152 102.705 146.153 102.705 146.153 102.705C146.154 102.705 146.154 102.705 146.153 102.705C146.153 102.705 146.153 102.705 146.153 102.705C146.153 102.705 146.152 102.705 145.552 101.22Z" fill="white"/>
<g clip-path="url(#clip1_970_317)">
<path d="M215.077 99.9435C215.077 96.5469 213.855 94.1957 212.809 92.3653L212.489 91.8446C211.219 89.8018 210.11 88.0074 210.11 85.9165C210.11 83.3931 212.024 81.0379 214.724 81.0379C214.804 81.0379 214.88 81.0459 214.956 81.0499L215.081 81.062C210.018 76.4122 203.393 73.8358 196.519 73.8442C191.964 73.8419 187.479 74.973 183.47 77.1357C179.461 79.2985 176.052 82.4248 173.552 86.233C174.193 86.253 174.806 86.269 175.323 86.269C178.195 86.269 182.645 85.9205 182.645 85.9205C184.127 85.8324 184.303 88.0074 182.821 88.1836C182.821 88.1836 181.335 88.3598 179.677 88.444L189.69 118.22L195.698 100.172L191.413 88.44C189.935 88.3518 188.533 88.1796 188.533 88.1796C187.051 88.0915 187.227 85.8244 188.705 85.9125C188.705 85.9125 193.247 86.261 195.947 86.261C198.823 86.261 203.277 85.9125 203.277 85.9125C204.759 85.8244 204.931 88.0034 203.449 88.1796C203.449 88.1796 201.959 88.3518 200.305 88.44L210.238 117.988L212.978 108.828L213.194 108.135C214.275 104.69 215.073 102.146 215.073 99.9395L215.077 99.9435ZM169.03 101.333C169.03 106.495 170.483 111.553 173.223 115.928C175.963 120.303 179.879 123.818 184.523 126.071L171.406 90.1423C169.835 93.6638 169.025 97.4774 169.03 101.333Z" fill="white"/>
<path d="M188.753 127.701L197.004 103.736L205.452 126.888C205.508 127.02 205.572 127.144 205.648 127.264C200.202 129.183 194.29 129.336 188.753 127.701ZM220.636 88.1434C220.756 89.0206 220.824 89.9578 220.824 90.9712C220.824 93.759 220.304 96.8952 218.733 100.817L210.338 125.089C216.533 121.49 221.078 115.613 223.002 108.711C224.926 101.81 224.079 94.4292 220.64 88.1434H220.636Z" fill="white"/>
<path fill-rule="evenodd" clip-rule="evenodd" d="M164.477 101.333C164.477 83.6654 178.852 69.29 196.52 69.29C214.184 69.29 228.563 83.6654 228.563 101.333C228.563 119.001 214.184 133.377 196.52 133.377C178.852 133.377 164.477 119.001 164.477 101.333ZM165.947 101.333C165.947 118.192 179.661 131.907 196.52 131.907C213.375 131.907 227.089 118.192 227.089 101.333C227.089 84.4705 213.375 70.76 196.52 70.76C179.657 70.76 165.947 84.4705 165.947 101.333Z" fill="white"/>
</g>
<path d="M33.152 179V157.182H41.5043C43.081 157.182 44.3913 157.43 45.4354 157.928C46.4865 158.418 47.2713 159.089 47.7898 159.941C48.3153 160.793 48.5781 161.759 48.5781 162.839C48.5781 163.727 48.4077 164.487 48.0668 165.119C47.7259 165.744 47.2678 166.251 46.6925 166.642C46.1172 167.033 45.4744 167.313 44.7642 167.484V167.697C45.5384 167.739 46.2805 167.977 46.9908 168.411C47.7081 168.837 48.294 169.44 48.7486 170.222C49.2031 171.003 49.4304 171.947 49.4304 173.055C49.4304 174.185 49.157 175.2 48.6101 176.102C48.0632 176.997 47.2393 177.704 46.1385 178.222C45.0376 178.741 43.6527 179 41.9837 179H33.152ZM37.1044 175.697H41.3551C42.7898 175.697 43.8232 175.424 44.4553 174.877C45.0945 174.323 45.4141 173.613 45.4141 172.746C45.4141 172.1 45.2543 171.518 44.9347 170.999C44.6151 170.474 44.1605 170.062 43.571 169.763C42.9815 169.458 42.2784 169.305 41.4616 169.305H37.1044V175.697ZM37.1044 166.461H41.0142C41.696 166.461 42.3104 166.337 42.8572 166.088C43.4041 165.832 43.8338 165.474 44.1463 165.012C44.4659 164.543 44.6257 163.989 44.6257 163.35C44.6257 162.505 44.3274 161.809 43.7308 161.262C43.1413 160.715 42.2642 160.442 41.0994 160.442H37.1044V166.461ZM59.9426 179.32C58.302 179.32 56.8851 178.979 55.6919 178.297C54.5059 177.608 53.5932 176.635 52.954 175.378C52.3148 174.114 51.9952 172.626 51.9952 170.914C51.9952 169.231 52.3148 167.754 52.954 166.482C53.6003 165.204 54.5023 164.21 55.66 163.499C56.8176 162.782 58.1777 162.423 59.7402 162.423C60.7488 162.423 61.7005 162.587 62.5953 162.913C63.4973 163.233 64.2928 163.73 64.9817 164.405C65.6777 165.08 66.2246 165.939 66.6223 166.983C67.0201 168.02 67.2189 169.256 67.2189 170.69V171.873H53.8063V169.273H63.5222C63.5151 168.535 63.3553 167.878 63.0428 167.303C62.7303 166.72 62.2935 166.262 61.7324 165.928C61.1784 165.594 60.5321 165.428 59.7935 165.428C59.0051 165.428 58.3127 165.619 57.7161 166.003C57.1195 166.379 56.6543 166.876 56.3205 167.494C55.9938 168.105 55.8269 168.776 55.8198 169.508V171.777C55.8198 172.729 55.9938 173.545 56.3418 174.227C56.6898 174.902 57.1763 175.42 57.8013 175.783C58.4263 176.138 59.1578 176.315 59.9959 176.315C60.557 176.315 61.0648 176.237 61.5194 176.081C61.9739 175.918 62.3681 175.68 62.7019 175.367C63.0357 175.055 63.2878 174.668 63.4583 174.206L67.0591 174.611C66.8319 175.562 66.3986 176.393 65.7594 177.104C65.1273 177.807 64.3176 178.354 63.3304 178.744C62.3432 179.128 61.214 179.32 59.9426 179.32ZM77.7259 179.32C76.0852 179.32 74.6683 178.979 73.4751 178.297C72.2891 177.608 71.3764 176.635 70.7372 175.378C70.098 174.114 69.7784 172.626 69.7784 170.914C69.7784 169.231 70.098 167.754 70.7372 166.482C71.3835 165.204 72.2855 164.21 73.4432 163.499C74.6009 162.782 75.9609 162.423 77.5234 162.423C78.532 162.423 79.4837 162.587 80.3786 162.913C81.2805 163.233 82.076 163.73 82.7649 164.405C83.4609 165.08 84.0078 165.939 84.4055 166.983C84.8033 168.02 85.0021 169.256 85.0021 170.69V171.873H71.5895V169.273H81.3054C81.2983 168.535 81.1385 167.878 80.826 167.303C80.5135 166.72 80.0767 166.262 79.5156 165.928C78.9616 165.594 78.3153 165.428 77.5767 165.428C76.7884 165.428 76.0959 165.619 75.4993 166.003C74.9027 166.379 74.4375 166.876 74.1037 167.494C73.777 168.105 73.6101 168.776 73.603 169.508V171.777C73.603 172.729 73.777 173.545 74.125 174.227C74.473 174.902 74.9595 175.42 75.5845 175.783C76.2095 176.138 76.9411 176.315 77.7791 176.315C78.3402 176.315 78.848 176.237 79.3026 176.081C79.7571 175.918 80.1513 175.68 80.4851 175.367C80.8189 175.055 81.071 174.668 81.2415 174.206L84.8423 174.611C84.6151 175.562 84.1818 176.393 83.5426 177.104C82.9105 177.807 82.1009 178.354 81.1136 178.744C80.1264 179.128 78.9972 179.32 77.7259 179.32ZM92.1213 169.412V179H88.2647V157.182H92.036V165.417H92.2278C92.6113 164.494 93.2044 163.766 94.0069 163.233C94.8166 162.693 95.8464 162.423 97.0964 162.423C98.2328 162.423 99.2235 162.661 100.069 163.137C100.914 163.613 101.567 164.309 102.029 165.225C102.498 166.141 102.732 167.26 102.732 168.581V179H98.8755V169.178C98.8755 168.077 98.5914 167.221 98.0233 166.61C97.4622 165.992 96.6738 165.683 95.6582 165.683C94.9764 165.683 94.3656 165.832 93.8258 166.131C93.2931 166.422 92.8741 166.844 92.5687 167.398C92.2704 167.952 92.1213 168.624 92.1213 169.412ZM106.663 179V162.636H110.52V179H106.663ZM108.602 160.314C107.991 160.314 107.466 160.112 107.025 159.707C106.585 159.295 106.365 158.801 106.365 158.226C106.365 157.643 106.585 157.15 107.025 156.745C107.466 156.333 107.991 156.127 108.602 156.127C109.22 156.127 109.746 156.333 110.179 156.745C110.619 157.15 110.839 157.643 110.839 158.226C110.839 158.801 110.619 159.295 110.179 159.707C109.746 160.112 109.22 160.314 108.602 160.314ZM114.485 179V162.636H118.342V179H114.485ZM116.424 160.314C115.814 160.314 115.288 160.112 114.848 159.707C114.407 159.295 114.187 158.801 114.187 158.226C114.187 157.643 114.407 157.15 114.848 156.745C115.288 156.333 115.814 156.127 116.424 156.127C117.042 156.127 117.568 156.333 118.001 156.745C118.441 157.15 118.662 157.643 118.662 158.226C118.662 158.801 118.441 159.295 118.001 159.707C117.568 160.112 117.042 160.314 116.424 160.314ZM136.924 162.636L131.097 179H126.835L121.008 162.636H125.12L128.881 174.792H129.051L132.823 162.636H136.924ZM155.205 162.636V165.619H145.798V162.636H155.205ZM148.121 158.716H151.977V174.078C151.977 174.597 152.056 174.994 152.212 175.271C152.375 175.541 152.588 175.726 152.851 175.825C153.114 175.925 153.405 175.974 153.725 175.974C153.966 175.974 154.186 175.957 154.385 175.921C154.591 175.886 154.747 175.854 154.854 175.825L155.504 178.84C155.298 178.911 155.003 178.989 154.619 179.075C154.243 179.16 153.781 179.21 153.235 179.224C152.269 179.252 151.399 179.107 150.624 178.787C149.85 178.46 149.236 177.956 148.781 177.274C148.334 176.592 148.114 175.74 148.121 174.717V158.716ZM165.393 179.32C163.795 179.32 162.41 178.968 161.238 178.265C160.066 177.562 159.157 176.578 158.511 175.314C157.871 174.05 157.552 172.572 157.552 170.882C157.552 169.192 157.871 167.711 158.511 166.44C159.157 165.168 160.066 164.181 161.238 163.478C162.41 162.775 163.795 162.423 165.393 162.423C166.991 162.423 168.376 162.775 169.548 163.478C170.719 164.181 171.625 165.168 172.264 166.44C172.911 167.711 173.234 169.192 173.234 170.882C173.234 172.572 172.911 174.05 172.264 175.314C171.625 176.578 170.719 177.562 169.548 178.265C168.376 178.968 166.991 179.32 165.393 179.32ZM165.414 176.23C166.281 176.23 167.005 175.992 167.587 175.516C168.17 175.033 168.603 174.387 168.887 173.577C169.178 172.768 169.324 171.866 169.324 170.871C169.324 169.87 169.178 168.964 168.887 168.155C168.603 167.338 168.17 166.688 167.587 166.205C167.005 165.722 166.281 165.481 165.414 165.481C164.526 165.481 163.788 165.722 163.198 166.205C162.616 166.688 162.179 167.338 161.888 168.155C161.604 168.964 161.462 169.87 161.462 170.871C161.462 171.866 161.604 172.768 161.888 173.577C162.179 174.387 162.616 175.033 163.198 175.516C163.788 175.992 164.526 176.23 165.414 176.23ZM188.71 179L182.553 157.182H186.803L190.735 173.215H190.937L195.134 157.182H199.002L203.21 173.226H203.401L207.333 157.182H211.583L205.426 179H201.526L197.159 163.691H196.988L192.61 179H188.71ZM214.324 179V157.182H222.506C224.182 157.182 225.588 157.494 226.724 158.119C227.868 158.744 228.731 159.604 229.313 160.697C229.903 161.784 230.197 163.02 230.197 164.405C230.197 165.804 229.903 167.047 229.313 168.134C228.724 169.22 227.854 170.076 226.703 170.701C225.553 171.319 224.136 171.628 222.452 171.628H217.03V168.379H221.92C222.9 168.379 223.702 168.208 224.327 167.867C224.952 167.526 225.414 167.058 225.712 166.461C226.018 165.864 226.17 165.179 226.17 164.405C226.17 163.631 226.018 162.949 225.712 162.359C225.414 161.77 224.949 161.312 224.317 160.985C223.692 160.651 222.886 160.484 221.898 160.484H218.276V179H214.324Z" fill="white"/>
<defs>
<clipPath id="clip0_970_317">
<rect width="64.0867" height="64.0867" fill="white" transform="translate(34.5 69.2901)"/>
</clipPath>
<clipPath id="clip1_970_317">
<rect width="64.0867" height="64.0867" fill="white" transform="translate(164.478 69.29)"/>
</clipPath>
</defs>
</svg>